<svg xmlns="http://www.w3.org/2000/svg">
    <symbol id="menu" viewBox="0 0 384.97 384.97"> 
        <g id="Menu">
            <path d="M12.03,84.212h360.909c6.641,0,12.03-5.39,12.03-12.03c0-6.641-5.39-12.03-12.03-12.03H12.03
                C5.39,60.152,0,65.541,0,72.182C0,78.823,5.39,84.212,12.03,84.212z"/>
            <path d="M372.939,180.455H12.03c-6.641,0-12.03,5.39-12.03,12.03s5.39,12.03,12.03,12.03h360.909c6.641,0,12.03-5.39,12.03-12.03
                S379.58,180.455,372.939,180.455z"/>
            <path d="M372.939,300.758H12.03c-6.641,0-12.03,5.39-12.03,12.03c0,6.641,5.39,12.03,12.03,12.03h360.909
                c6.641,0,12.03-5.39,12.03-12.03C384.97,306.147,379.58,300.758,372.939,300.758z"/>
        </g>
    </symbol>
    <symbol id="service-1" viewBox="0 0 50.693 40"> 
        <g id="Group_16043" data-name="Group 16043" transform="translate(0 -54)">
        <g id="Group_16044" data-name="Group 16044" transform="translate(24.356 54)">
        <g id="Group_16043-2" data-name="Group 16043" transform="translate(0 0)">
            <path id="Path_3" data-name="Path 3" d="M247.69,54.29a.99.99,0,1,0,.29.7A1,1,0,0,0,247.69,54.29Z" transform="translate(-246 -54)"/>
        </g>
            </g>
            <g id="Group_16046" data-name="Group 16046" transform="translate(0 54)">
            <g id="Group_16045" data-name="Group 16045" transform="translate(0 0)">
                <path id="Path_4" data-name="Path 4" d="M45.113,61.965l5.347-6.337A.99.99,0,0,0,49.7,54H29.208a.99.99,0,0,0,0,1.98H47.572L43.9,60.337H6.8L3.121,55.98H20.792a.99.99,0,0,0,0-1.98H.99a.99.99,0,0,0-.757,1.629L5.58,61.965a.99.99,0,0,0,.757.352V74.3a.99.99,0,1,0,1.98,0V62.317h16.04v8.224l-5.63,4.09a.99.99,0,0,0-.36,1.107l2.306,7.1a.99.99,0,0,0,.942.684h7.464a.99.99,0,0,0,.942-.684l2.306-7.1a.99.99,0,0,0-.36-1.107l-5.63-4.09V62.317h16.04v18.7l-5.63,4.09a.99.99,0,0,0-.36,1.107l2.306,7.1a.99.99,0,0,0,.942.684H47.1a.99.99,0,0,0,.942-.684l2.306-7.1a.99.99,0,0,0-.36-1.107l-5.63-4.09v-18.7A.99.99,0,0,0,45.113,61.965ZM30.22,75.811l-1.862,5.73H22.334l-1.862-5.73,4.874-3.541ZM48.24,86.29l-1.862,5.73H40.353l-1.862-5.73,4.874-3.541Z" transform="translate(0 -54)" />
            </g>
            </g>
            <g id="Group_16048" data-name="Group 16048" transform="translate(0.298 80.535)">
            <g id="Group_16047" data-name="Group 16047" transform="translate(0 0)">
                <path id="Path_5" data-name="Path 5" d="M16.663,326.577l-6.038-4.387a.99.99,0,0,0-1.164,0l-6.038,4.387a.99.99,0,0,0-.36,1.107l2.306,7.1a.99.99,0,0,0,.942.684h7.464a.99.99,0,0,0,.942-.684l2.306-7.1A.99.99,0,0,0,16.663,326.577Zm-3.608,6.909H7.03l-1.862-5.73,4.874-3.541,4.874,3.541Z" transform="translate(-3.014 -322.001)" />
            </g>
            </g>
            <g id="Group_16050" data-name="Group 16050" transform="translate(6.336 76.644)">
            <g id="Group_16049" data-name="Group 16049" transform="translate(0 0)">
                <path id="Path_6" data-name="Path 6" d="M65.69,283a.99.99,0,1,0,.29.7A1,1,0,0,0,65.69,283Z" transform="translate(-64 -282.71)" />
            </g>
            </g>
        </g>
    </symbol>
    <symbol id="service-2" viewBox="0 0 43.465 44"> 
        <g id="Group_16054" data-name="Group 16054" transform="translate(-7.662 -7.024)">
            <path id="Path_7" data-name="Path 7" d="M29.394,8.805,48.776,24.353a1.786,1.786,0,0,1,.5,2.612,1.589,1.589,0,0,1-2.34.212L29.876,13.5a.775.775,0,0,0-.964,0L11.854,27.178a1.53,1.53,0,0,1-2.342-.212,1.755,1.755,0,0,1,.5-2.612Zm-.482-1.591L9.048,23.153a3.456,3.456,0,0,0-.794,4.7,3.073,3.073,0,0,0,1.982,1.285,3.275,3.275,0,0,0,2.579-.761l16.579-13.29,16.575,13.29a3.284,3.284,0,0,0,2.583.761,3.079,3.079,0,0,0,1.985-1.285,3.459,3.459,0,0,0-.8-4.7L29.876,7.214a.705.705,0,0,0-.964,0Z" transform="translate(0 0)" />
            <path id="Path_8" data-name="Path 8" d="M23.649,44.093H37.584a1.112,1.112,0,0,1,1.136,1.125v2.564a1.112,1.112,0,0,1-1.136,1.127H23.649a1.113,1.113,0,0,1-1.14-1.127V45.218A1.113,1.113,0,0,1,23.649,44.093Zm0-1.539a2.682,2.682,0,0,0-2.677,2.664v2.564a2.68,2.68,0,0,0,2.677,2.663H37.584a2.683,2.683,0,0,0,2.68-2.663v-.509h.642a1.112,1.112,0,0,1,1.14,1.124v3.331c0,.627-.476,1.042-1.216,1.124H30.663a.767.767,0,0,0-.767.773v3.119a2.328,2.328,0,0,0-2.179,2.125v5.473H16.1V46.378a.769.769,0,1,0-1.537,0V65.112a.765.765,0,0,0,.766.766H28.244c.8,0,1.011-.391,1.011-1V58.869a.535.535,0,0,1,.5-.588h1.718a.536.536,0,0,1,.5.588v6.016c0,.649.287.994.818.994H49.228A.77.77,0,0,0,50,65.112V46.378a.77.77,0,1,0-1.54,0V64.342H33.52V58.869a2.152,2.152,0,0,0-2.088-2.125V54.4h9.474a2.891,2.891,0,0,0,2.679-2.667V48.4a2.684,2.684,0,0,0-2.679-2.667h-.642v-.512a2.685,2.685,0,0,0-2.68-2.664Z" transform="translate(-2.884 -14.855)" />
        </g>
    </symbol>
    <symbol id="service-3" viewBox="0 0 44 44"> 
        <g id="Group_16057" data-name="Group 16057">
            <g id="Group_16056" data-name="Group 16056">
            <g id="Group_16055-2" data-name="Group 16055">
                <path id="Path_9" data-name="Path 9" d="M.733,1.467H6.6A.733.733,0,0,0,6.6,0H.733a.733.733,0,0,0,0,1.467Z" />
                <path id="Path_10" data-name="Path 10" d="M27.133,24.2h.733A5.14,5.14,0,0,0,33,19.067V4.4a2.2,2.2,0,0,0,2.2-2.2V1.467h8.067a.733.733,0,0,0,0-1.467H9.533a.733.733,0,1,0,0,1.467h11V13.2H14.667a2.2,2.2,0,0,0-2.2,2.2v2.933a2.2,2.2,0,0,0,2.2,2.2V32.267h-8.8A5.867,5.867,0,0,0,5.867,44H16.133a5.826,5.826,0,0,0,3.9-1.5l1.478,1.313A.734.734,0,0,0,22,44a.718.718,0,0,0,.3-.065.733.733,0,0,0,.433-.669V39.074a1.482,1.482,0,0,0-.22-.769l-1.119-1.822.994-1.613a1.462,1.462,0,0,0,0-1.54l-.994-1.613.994-1.613a1.462,1.462,0,0,0,0-1.54L21.4,26.95l.994-1.613a1.462,1.462,0,0,0,0-1.54L21.4,22.183l.89-1.445A5.1,5.1,0,0,0,27.133,24.2ZM24.2,9.23l-1.9-1.9,1.9-1.9,1.9,1.9ZM26.4,9.1V11.43l-1.163-1.163Zm0,4.4v1.9a.733.733,0,0,1-.733.733h-.733V15.4a2.2,2.2,0,0,0-2.2-2.2H22.3l1.9-1.9ZM30.8,1.467h2.933V2.2A.733.733,0,0,1,33,2.933H31.533A.733.733,0,0,1,30.8,2.2V1.467ZM27.867,15.4V1.467h1.467V2.2a2.2,2.2,0,0,0,2.2,2.2V19.067a3.671,3.671,0,0,1-3.667,3.667h-.733a3.643,3.643,0,0,1-3.447-2.425,2.2,2.2,0,0,0,1.247-1.975V17.6h.733A2.2,2.2,0,0,0,27.867,15.4ZM26.4,5.563,25.237,4.4,26.4,3.237ZM22,1.467h4.1l-1.9,1.9-.215-.215a.733.733,0,0,0-1.037,1.037l.215.215L22,5.563ZM22,9.1l1.163,1.163L22,11.43ZM5.867,42.533A4.388,4.388,0,0,1,2.6,41.067H5.133a.733.733,0,1,0,0-1.467H1.723a4.319,4.319,0,0,1,0-2.933h3.41a.733.733,0,0,0,0-1.467H2.6a4.388,4.388,0,0,1,3.271-1.467h6.406A5.883,5.883,0,0,0,10.319,37.4H8.067a.733.733,0,1,0,0,1.467h2.251a5.86,5.86,0,0,0,1.948,3.667h-6.4Zm10.267,0a4.394,4.394,0,0,1-1.467-8.539v3.08a1.467,1.467,0,0,0,.493,1.1l3.77,3.351A4.363,4.363,0,0,1,16.133,42.533Zm5.133-.9-.779-.692,0-.006h-.006l-4.344-3.865V20.533h4.554l-.543.88a1.462,1.462,0,0,0,0,1.54l.993,1.613-.993,1.613a1.462,1.462,0,0,0,0,1.54l.994,1.613-.994,1.613a1.462,1.462,0,0,0,0,1.54l.994,1.613-.994,1.613a1.462,1.462,0,0,0,0,1.54l1.122,1.821v2.56Zm-6.6-22.567a.733.733,0,0,1-.733-.733V15.4a.733.733,0,0,1,.733-.733h8.067a.733.733,0,0,1,.733.733v2.933a.733.733,0,0,1-.733.733H14.667Z" />
                <path id="Path_11" data-name="Path 11" d="M224.067,187.733H222.6a.733.733,0,1,0,0,1.467h1.467a.733.733,0,0,0,0-1.467Z" transform="translate(-202.8 -171.6)" />
                <path id="Path_12" data-name="Path 12" d="M180.668,187.733h-.733a.733.733,0,1,0,0,1.467h.733a.733.733,0,0,0,0-1.467Z" transform="translate(-163.801 -171.6)" />
                <path id="Path_13" data-name="Path 13" d="M295.532,375.467h-8.067a5.867,5.867,0,1,0,0,11.733h8.067a5.867,5.867,0,1,0,0-11.733Zm-8.067,10.267a4.388,4.388,0,0,1-3.271-1.467H286a.733.733,0,0,0,0-1.467h-2.677a4.319,4.319,0,0,1,0-2.933H286a.733.733,0,0,0,0-1.467h-1.8a4.388,4.388,0,0,1,3.271-1.467h4.2a5.859,5.859,0,0,0-1.948,3.667H288.2a.733.733,0,0,0,0,1.467h1.517a5.86,5.86,0,0,0,1.948,3.667h-4.2Zm8.067,0a4.4,4.4,0,1,1,4.4-4.4A4.4,4.4,0,0,1,295.532,385.734Z" transform="translate(-257.399 -343.2)" />
            </g>
            </g>
        </g>
    </symbol>
    <symbol id="service-4" viewBox="0 0 44 44"> 
        <path id="Path_14" data-name="Path 14" d="M416,120h1.467v10.267H416Zm0,0" transform="translate(-377.867 -109)" />
        <path id="Path_15" data-name="Path 15" d="M.1,50.455a2.89,2.89,0,0,0,.129.414c.021.051.054.1.078.147A2.689,2.689,0,0,0,1.3,52.168a2.991,2.991,0,0,0,.333.181c.056.028.108.064.167.09a2.957,2.957,0,0,0,.4.123c.051.013.1.035.15.045a2.952,2.952,0,0,0,.583.059h19.8V51.2H2.933a1.492,1.492,0,0,1-.293-.029c-.035-.008-.068-.022-.1-.032a1.5,1.5,0,0,1-.171-.053,1.663,1.663,0,0,1-.147-.08c-.033-.019-.068-.034-.1-.054a1.533,1.533,0,0,1-.22-.183,1.51,1.51,0,0,1-.182-.22c-.028-.042-.048-.089-.073-.134a.988.988,0,0,1-.062-.115,1.3,1.3,0,0,1-.059-.189c-.008-.029-.021-.056-.026-.086a1.466,1.466,0,0,1,1.435-1.759h2.2a.733.733,0,0,0,.733-.733V21.867H31.533V20.4H5.867V16.733A.733.733,0,0,0,5.133,16h-2.2A2.933,2.933,0,0,0,0,18.933v30.8a2.934,2.934,0,0,0,.059.587C.069,50.365.089,50.409.1,50.455ZM1.467,18.933a1.467,1.467,0,0,1,1.467-1.467H4.4V46.8H2.933a2.91,2.91,0,0,0-1.467.394Zm0,0" transform="translate(0 -14.533)" />
        <path id="Path_16" data-name="Path 16" d="M121.69,147.422l-1.564-1.956h6.541V144H118.6a.732.732,0,0,0-.561.266s-.009.005-.011.009l-5.867,7.333a.762.762,0,0,0-.1.161c0,.005-.006.009-.008.014a.737.737,0,0,0-.052.253c0,.011-.006.02-.006.03v8.8a.733.733,0,0,0,.733.733H131.8v-1.467h-6.6V152.8h10.267v4.4h1.467v-5.133c0-.01-.006-.019-.006-.03a.727.727,0,0,0-.052-.252c0-.006-.007-.011-.009-.017a.7.7,0,0,0-.094-.158l-2.2-2.753-1.145.915,1.246,1.562h-9.855Zm-3.09-1.516,2.894,3.618,1.447,1.809h-8.681Zm-5.133,6.894h10.267v7.333h-2.2V155a.733.733,0,0,0-.733-.733h-4.4a.733.733,0,0,0-.733.733v5.133h-2.2Zm3.667,7.333v-4.4h2.933v4.4Zm0,0" transform="translate(-101.733 -130.8)" />
        <path id="Path_17" data-name="Path 17" d="M288.733,256a.733.733,0,0,0-.733.733v2.933a.733.733,0,0,0,.733.733h2.933a.733.733,0,0,0,.733-.733v-2.933a.733.733,0,0,0-.733-.733Zm2.2,2.933h-1.467v-1.467h1.467Zm0,0" transform="translate(-261.6 -232.533)" />
        <path id="Path_18" data-name="Path 18" d="M239.748,216.053a.733.733,0,0,0-.8.159l-22.733,22.733a.733.733,0,0,0,.518,1.252h22.733a.733.733,0,0,0,.733-.733V216.731A.734.734,0,0,0,239.748,216.053Zm-1.014,22.678H218.5l20.23-20.23Zm0,0" transform="translate(-196.201 -196.197)" />
        <path id="Path_19" data-name="Path 19" d="M336.056,344.347a.733.733,0,0,0,.677.453h7.333a.733.733,0,0,0,.733-.733v-7.333a.733.733,0,0,0-1.252-.518l-7.333,7.333A.733.733,0,0,0,336.056,344.347Zm7.277-5.844v4.83H338.5Zm0,0" transform="translate(-305.2 -305.2)" />
        <path id="Path_20" data-name="Path 20" d="M282.781.215a.733.733,0,0,0-1.037,0l-13.2,13.2a.739.739,0,0,0-.177.286l-.733,2.2a.733.733,0,0,0,.177.75l.215.215-1.682,1.682,1.037,1.037,1.682-1.682.215.215a.734.734,0,0,0,.518.215.749.749,0,0,0,.232-.038l2.2-.733a.731.731,0,0,0,.287-.178l13.2-13.2a.733.733,0,0,0,0-1.037ZM270.466,13.567l3-3,1.9,1.9-3,3Zm-.472,3.194-.826-.826.4-1.195,1.623,1.622Zm6.4-5.331-1.9-1.9,7.763-7.763,1.9,1.9Zm0,0" transform="translate(-241.929)" />
        <path id="Path_21" data-name="Path 21" d="M80,336v2.2a.733.733,0,0,0,.733.733h2.2v-1.467H81.467V336Zm0,0" transform="translate(-72.667 -305.2)" />
        <path id="Path_22" data-name="Path 22" d="M82.933,96h-2.2a.733.733,0,0,0-.733.733v2.2h1.467V97.467h1.467Zm0,0" transform="translate(-72.667 -87.2)" />
    </symbol>
</svg>