<svg xmlns="http://www.w3.org/2000/svg">
    <symbol id="menu" viewBox="0 0 384.97 384.97"> 
        <g id="Menu">
            <path d="M12.03,84.212h360.909c6.641,0,12.03-5.39,12.03-12.03c0-6.641-5.39-12.03-12.03-12.03H12.03
                C5.39,60.152,0,65.541,0,72.182C0,78.823,5.39,84.212,12.03,84.212z"/>
            <path d="M372.939,180.455H12.03c-6.641,0-12.03,5.39-12.03,12.03s5.39,12.03,12.03,12.03h360.909c6.641,0,12.03-5.39,12.03-12.03
                S379.58,180.455,372.939,180.455z"/>
            <path d="M372.939,300.758H12.03c-6.641,0-12.03,5.39-12.03,12.03c0,6.641,5.39,12.03,12.03,12.03h360.909
                c6.641,0,12.03-5.39,12.03-12.03C384.97,306.147,379.58,300.758,372.939,300.758z"/>
        </g>
    </symbol>
    <symbol id="service-1" viewBox="0 0 50.693 40"> 
        <g id="Group_16043" data-name="Group 16043" transform="translate(0 -54)">
        <g id="Group_16044" data-name="Group 16044" transform="translate(24.356 54)">
        <g id="Group_16043-2" data-name="Group 16043" transform="translate(0 0)">
            <path id="Path_3" data-name="Path 3" d="M247.69,54.29a.99.99,0,1,0,.29.7A1,1,0,0,0,247.69,54.29Z" transform="translate(-246 -54)"/>
        </g>
            </g>
            <g id="Group_16046" data-name="Group 16046" transform="translate(0 54)">
            <g id="Group_16045" data-name="Group 16045" transform="translate(0 0)">
                <path id="Path_4" data-name="Path 4" d="M45.113,61.965l5.347-6.337A.99.99,0,0,0,49.7,54H29.208a.99.99,0,0,0,0,1.98H47.572L43.9,60.337H6.8L3.121,55.98H20.792a.99.99,0,0,0,0-1.98H.99a.99.99,0,0,0-.757,1.629L5.58,61.965a.99.99,0,0,0,.757.352V74.3a.99.99,0,1,0,1.98,0V62.317h16.04v8.224l-5.63,4.09a.99.99,0,0,0-.36,1.107l2.306,7.1a.99.99,0,0,0,.942.684h7.464a.99.99,0,0,0,.942-.684l2.306-7.1a.99.99,0,0,0-.36-1.107l-5.63-4.09V62.317h16.04v18.7l-5.63,4.09a.99.99,0,0,0-.36,1.107l2.306,7.1a.99.99,0,0,0,.942.684H47.1a.99.99,0,0,0,.942-.684l2.306-7.1a.99.99,0,0,0-.36-1.107l-5.63-4.09v-18.7A.99.99,0,0,0,45.113,61.965ZM30.22,75.811l-1.862,5.73H22.334l-1.862-5.73,4.874-3.541ZM48.24,86.29l-1.862,5.73H40.353l-1.862-5.73,4.874-3.541Z" transform="translate(0 -54)" />
            </g>
            </g>
            <g id="Group_16048" data-name="Group 16048" transform="translate(0.298 80.535)">
            <g id="Group_16047" data-name="Group 16047" transform="translate(0 0)">
                <path id="Path_5" data-name="Path 5" d="M16.663,326.577l-6.038-4.387a.99.99,0,0,0-1.164,0l-6.038,4.387a.99.99,0,0,0-.36,1.107l2.306,7.1a.99.99,0,0,0,.942.684h7.464a.99.99,0,0,0,.942-.684l2.306-7.1A.99.99,0,0,0,16.663,326.577Zm-3.608,6.909H7.03l-1.862-5.73,4.874-3.541,4.874,3.541Z" transform="translate(-3.014 -322.001)" />
            </g>
            </g>
            <g id="Group_16050" data-name="Group 16050" transform="translate(6.336 76.644)">
            <g id="Group_16049" data-name="Group 16049" transform="translate(0 0)">
                <path id="Path_6" data-name="Path 6" d="M65.69,283a.99.99,0,1,0,.29.7A1,1,0,0,0,65.69,283Z" transform="translate(-64 -282.71)" />
            </g>
            </g>
        </g>
    </symbol>
    <symbol id="service-2" viewBox="0 0 43.465 44"> 
        <g id="Group_16054" data-name="Group 16054" transform="translate(-7.662 -7.024)">
            <path id="Path_7" data-name="Path 7" d="M29.394,8.805,48.776,24.353a1.786,1.786,0,0,1,.5,2.612,1.589,1.589,0,0,1-2.34.212L29.876,13.5a.775.775,0,0,0-.964,0L11.854,27.178a1.53,1.53,0,0,1-2.342-.212,1.755,1.755,0,0,1,.5-2.612Zm-.482-1.591L9.048,23.153a3.456,3.456,0,0,0-.794,4.7,3.073,3.073,0,0,0,1.982,1.285,3.275,3.275,0,0,0,2.579-.761l16.579-13.29,16.575,13.29a3.284,3.284,0,0,0,2.583.761,3.079,3.079,0,0,0,1.985-1.285,3.459,3.459,0,0,0-.8-4.7L29.876,7.214a.705.705,0,0,0-.964,0Z" transform="translate(0 0)" />
            <path id="Path_8" data-name="Path 8" d="M23.649,44.093H37.584a1.112,1.112,0,0,1,1.136,1.125v2.564a1.112,1.112,0,0,1-1.136,1.127H23.649a1.113,1.113,0,0,1-1.14-1.127V45.218A1.113,1.113,0,0,1,23.649,44.093Zm0-1.539a2.682,2.682,0,0,0-2.677,2.664v2.564a2.68,2.68,0,0,0,2.677,2.663H37.584a2.683,2.683,0,0,0,2.68-2.663v-.509h.642a1.112,1.112,0,0,1,1.14,1.124v3.331c0,.627-.476,1.042-1.216,1.124H30.663a.767.767,0,0,0-.767.773v3.119a2.328,2.328,0,0,0-2.179,2.125v5.473H16.1V46.378a.769.769,0,1,0-1.537,0V65.112a.765.765,0,0,0,.766.766H28.244c.8,0,1.011-.391,1.011-1V58.869a.535.535,0,0,1,.5-.588h1.718a.536.536,0,0,1,.5.588v6.016c0,.649.287.994.818.994H49.228A.77.77,0,0,0,50,65.112V46.378a.77.77,0,1,0-1.54,0V64.342H33.52V58.869a2.152,2.152,0,0,0-2.088-2.125V54.4h9.474a2.891,2.891,0,0,0,2.679-2.667V48.4a2.684,2.684,0,0,0-2.679-2.667h-.642v-.512a2.685,2.685,0,0,0-2.68-2.664Z" transform="translate(-2.884 -14.855)" />
        </g>
    </symbol>
    <symbol id="service-3" viewBox="0 0 44 44"> 
        <g id="Group_16057" data-name="Group 16057">
            <g id="Group_16056" data-name="Group 16056">
            <g id="Group_16055-2" data-name="Group 16055">
                <path id="Path_9" data-name="Path 9" d="M.733,1.467H6.6A.733.733,0,0,0,6.6,0H.733a.733.733,0,0,0,0,1.467Z" />
                <path id="Path_10" data-name="Path 10" d="M27.133,24.2h.733A5.14,5.14,0,0,0,33,19.067V4.4a2.2,2.2,0,0,0,2.2-2.2V1.467h8.067a.733.733,0,0,0,0-1.467H9.533a.733.733,0,1,0,0,1.467h11V13.2H14.667a2.2,2.2,0,0,0-2.2,2.2v2.933a2.2,2.2,0,0,0,2.2,2.2V32.267h-8.8A5.867,5.867,0,0,0,5.867,44H16.133a5.826,5.826,0,0,0,3.9-1.5l1.478,1.313A.734.734,0,0,0,22,44a.718.718,0,0,0,.3-.065.733.733,0,0,0,.433-.669V39.074a1.482,1.482,0,0,0-.22-.769l-1.119-1.822.994-1.613a1.462,1.462,0,0,0,0-1.54l-.994-1.613.994-1.613a1.462,1.462,0,0,0,0-1.54L21.4,26.95l.994-1.613a1.462,1.462,0,0,0,0-1.54L21.4,22.183l.89-1.445A5.1,5.1,0,0,0,27.133,24.2ZM24.2,9.23l-1.9-1.9,1.9-1.9,1.9,1.9ZM26.4,9.1V11.43l-1.163-1.163Zm0,4.4v1.9a.733.733,0,0,1-.733.733h-.733V15.4a2.2,2.2,0,0,0-2.2-2.2H22.3l1.9-1.9ZM30.8,1.467h2.933V2.2A.733.733,0,0,1,33,2.933H31.533A.733.733,0,0,1,30.8,2.2V1.467ZM27.867,15.4V1.467h1.467V2.2a2.2,2.2,0,0,0,2.2,2.2V19.067a3.671,3.671,0,0,1-3.667,3.667h-.733a3.643,3.643,0,0,1-3.447-2.425,2.2,2.2,0,0,0,1.247-1.975V17.6h.733A2.2,2.2,0,0,0,27.867,15.4ZM26.4,5.563,25.237,4.4,26.4,3.237ZM22,1.467h4.1l-1.9,1.9-.215-.215a.733.733,0,0,0-1.037,1.037l.215.215L22,5.563ZM22,9.1l1.163,1.163L22,11.43ZM5.867,42.533A4.388,4.388,0,0,1,2.6,41.067H5.133a.733.733,0,1,0,0-1.467H1.723a4.319,4.319,0,0,1,0-2.933h3.41a.733.733,0,0,0,0-1.467H2.6a4.388,4.388,0,0,1,3.271-1.467h6.406A5.883,5.883,0,0,0,10.319,37.4H8.067a.733.733,0,1,0,0,1.467h2.251a5.86,5.86,0,0,0,1.948,3.667h-6.4Zm10.267,0a4.394,4.394,0,0,1-1.467-8.539v3.08a1.467,1.467,0,0,0,.493,1.1l3.77,3.351A4.363,4.363,0,0,1,16.133,42.533Zm5.133-.9-.779-.692,0-.006h-.006l-4.344-3.865V20.533h4.554l-.543.88a1.462,1.462,0,0,0,0,1.54l.993,1.613-.993,1.613a1.462,1.462,0,0,0,0,1.54l.994,1.613-.994,1.613a1.462,1.462,0,0,0,0,1.54l.994,1.613-.994,1.613a1.462,1.462,0,0,0,0,1.54l1.122,1.821v2.56Zm-6.6-22.567a.733.733,0,0,1-.733-.733V15.4a.733.733,0,0,1,.733-.733h8.067a.733.733,0,0,1,.733.733v2.933a.733.733,0,0,1-.733.733H14.667Z" />
                <path id="Path_11" data-name="Path 11" d="M224.067,187.733H222.6a.733.733,0,1,0,0,1.467h1.467a.733.733,0,0,0,0-1.467Z" transform="translate(-202.8 -171.6)" />
                <path id="Path_12" data-name="Path 12" d="M180.668,187.733h-.733a.733.733,0,1,0,0,1.467h.733a.733.733,0,0,0,0-1.467Z" transform="translate(-163.801 -171.6)" />
                <path id="Path_13" data-name="Path 13" d="M295.532,375.467h-8.067a5.867,5.867,0,1,0,0,11.733h8.067a5.867,5.867,0,1,0,0-11.733Zm-8.067,10.267a4.388,4.388,0,0,1-3.271-1.467H286a.733.733,0,0,0,0-1.467h-2.677a4.319,4.319,0,0,1,0-2.933H286a.733.733,0,0,0,0-1.467h-1.8a4.388,4.388,0,0,1,3.271-1.467h4.2a5.859,5.859,0,0,0-1.948,3.667H288.2a.733.733,0,0,0,0,1.467h1.517a5.86,5.86,0,0,0,1.948,3.667h-4.2Zm8.067,0a4.4,4.4,0,1,1,4.4-4.4A4.4,4.4,0,0,1,295.532,385.734Z" transform="translate(-257.399 -343.2)" />
            </g>
            </g>
        </g>
    </symbol>
    <symbol id="service-4" viewBox="0 0 44 44"> 
        <path id="Path_14" data-name="Path 14" d="M416,120h1.467v10.267H416Zm0,0" transform="translate(-377.867 -109)" />
        <path id="Path_15" data-name="Path 15" d="M.1,50.455a2.89,2.89,0,0,0,.129.414c.021.051.054.1.078.147A2.689,2.689,0,0,0,1.3,52.168a2.991,2.991,0,0,0,.333.181c.056.028.108.064.167.09a2.957,2.957,0,0,0,.4.123c.051.013.1.035.15.045a2.952,2.952,0,0,0,.583.059h19.8V51.2H2.933a1.492,1.492,0,0,1-.293-.029c-.035-.008-.068-.022-.1-.032a1.5,1.5,0,0,1-.171-.053,1.663,1.663,0,0,1-.147-.08c-.033-.019-.068-.034-.1-.054a1.533,1.533,0,0,1-.22-.183,1.51,1.51,0,0,1-.182-.22c-.028-.042-.048-.089-.073-.134a.988.988,0,0,1-.062-.115,1.3,1.3,0,0,1-.059-.189c-.008-.029-.021-.056-.026-.086a1.466,1.466,0,0,1,1.435-1.759h2.2a.733.733,0,0,0,.733-.733V21.867H31.533V20.4H5.867V16.733A.733.733,0,0,0,5.133,16h-2.2A2.933,2.933,0,0,0,0,18.933v30.8a2.934,2.934,0,0,0,.059.587C.069,50.365.089,50.409.1,50.455ZM1.467,18.933a1.467,1.467,0,0,1,1.467-1.467H4.4V46.8H2.933a2.91,2.91,0,0,0-1.467.394Zm0,0" transform="translate(0 -14.533)" />
        <path id="Path_16" data-name="Path 16" d="M121.69,147.422l-1.564-1.956h6.541V144H118.6a.732.732,0,0,0-.561.266s-.009.005-.011.009l-5.867,7.333a.762.762,0,0,0-.1.161c0,.005-.006.009-.008.014a.737.737,0,0,0-.052.253c0,.011-.006.02-.006.03v8.8a.733.733,0,0,0,.733.733H131.8v-1.467h-6.6V152.8h10.267v4.4h1.467v-5.133c0-.01-.006-.019-.006-.03a.727.727,0,0,0-.052-.252c0-.006-.007-.011-.009-.017a.7.7,0,0,0-.094-.158l-2.2-2.753-1.145.915,1.246,1.562h-9.855Zm-3.09-1.516,2.894,3.618,1.447,1.809h-8.681Zm-5.133,6.894h10.267v7.333h-2.2V155a.733.733,0,0,0-.733-.733h-4.4a.733.733,0,0,0-.733.733v5.133h-2.2Zm3.667,7.333v-4.4h2.933v4.4Zm0,0" transform="translate(-101.733 -130.8)" />
        <path id="Path_17" data-name="Path 17" d="M288.733,256a.733.733,0,0,0-.733.733v2.933a.733.733,0,0,0,.733.733h2.933a.733.733,0,0,0,.733-.733v-2.933a.733.733,0,0,0-.733-.733Zm2.2,2.933h-1.467v-1.467h1.467Zm0,0" transform="translate(-261.6 -232.533)" />
        <path id="Path_18" data-name="Path 18" d="M239.748,216.053a.733.733,0,0,0-.8.159l-22.733,22.733a.733.733,0,0,0,.518,1.252h22.733a.733.733,0,0,0,.733-.733V216.731A.734.734,0,0,0,239.748,216.053Zm-1.014,22.678H218.5l20.23-20.23Zm0,0" transform="translate(-196.201 -196.197)" />
        <path id="Path_19" data-name="Path 19" d="M336.056,344.347a.733.733,0,0,0,.677.453h7.333a.733.733,0,0,0,.733-.733v-7.333a.733.733,0,0,0-1.252-.518l-7.333,7.333A.733.733,0,0,0,336.056,344.347Zm7.277-5.844v4.83H338.5Zm0,0" transform="translate(-305.2 -305.2)" />
        <path id="Path_20" data-name="Path 20" d="M282.781.215a.733.733,0,0,0-1.037,0l-13.2,13.2a.739.739,0,0,0-.177.286l-.733,2.2a.733.733,0,0,0,.177.75l.215.215-1.682,1.682,1.037,1.037,1.682-1.682.215.215a.734.734,0,0,0,.518.215.749.749,0,0,0,.232-.038l2.2-.733a.731.731,0,0,0,.287-.178l13.2-13.2a.733.733,0,0,0,0-1.037ZM270.466,13.567l3-3,1.9,1.9-3,3Zm-.472,3.194-.826-.826.4-1.195,1.623,1.622Zm6.4-5.331-1.9-1.9,7.763-7.763,1.9,1.9Zm0,0" transform="translate(-241.929)" />
        <path id="Path_21" data-name="Path 21" d="M80,336v2.2a.733.733,0,0,0,.733.733h2.2v-1.467H81.467V336Zm0,0" transform="translate(-72.667 -305.2)" />
        <path id="Path_22" data-name="Path 22" d="M82.933,96h-2.2a.733.733,0,0,0-.733.733v2.2h1.467V97.467h1.467Zm0,0" transform="translate(-72.667 -87.2)" />
    </symbol>
    <symbol id="close" viewBox="0 0 491.415 491.415"> 
        <g>
		<path d="M491.015,80.959c-0.2-2.9-0.1-5.7-0.6-8.6c-0.7-5.7-2-11.3-3.9-16.8c-7.6-21.8-24.6-39.9-45.9-48.6
			c-2.7-1-5.4-2.1-8.1-2.9c-2.9-0.7-5.4-1.5-8.6-2l-4.8-0.7l-2.4-0.3l-1.7-0.1l-3.3-0.2l-1.6-0.1h-2.6l-26.1,0.1l-52.2,0.1
			c-69.6,0.1-139.1,0.1-208.5-0.5c-12.3-0.1-31.7,3.4-37.8,5.8c-12.1,4.9,3.6,9,27.1,12.1c77.5,10.3,171.5,14.8,267.2,16l21.6,0.3
			l10.1,0.1l5.4,0.3c1.5,0.2,2.4,0.5,3.7,0.6c10.5,2.1,20.7,8.2,27.5,16.7c6.9,8.6,10.5,19.3,10.3,30.2l-0.6,43.2
			c-0.7,57.6-1.3,115.2-2,172.9c-0.2,28.8-0.4,57.7-0.6,86.5l-0.1,21.6c0.1,8.1-0.3,12.6-1.5,16.8c-2.4,9.7-8.4,18.5-16.6,24.3
			c-4.1,2.9-8.6,5.1-13.4,6.5c-2.4,0.7-4.9,1.1-7.4,1.5l-3.8,0.2c-1.4,0.1-3.5,0-5.2,0.1l-43.4,0.2c-28.9,0.3-57.9,0.6-86.8,0.9
			c-28.7-0.4-57.3-0.7-86-1.1l-68.2-0.6l-34.1-0.2h-4.3h-2.1h-0.3h-0.8l-4.3-0.2c-0.8,0-1.2-0.1-1.5-0.2l-1.1-0.2
			c-1.3-0.1-3.3-0.8-5.2-1.2c-1.8-0.7-3.7-1.2-5.4-2.1c-7-3.2-13-8.5-17.3-14.9c-4.2-6.5-6.7-13.9-6.9-21.6l-0.1-67.3
			c-0.1-45.4-0.4-90.8-0.9-136.1c-0.3-22.7-0.6-45.3-0.9-67.9l-0.8-33.9l-0.3-17l-0.2-8.5v-1.1v-0.3v-0.1c0-0.1,0-0.1,0-0.1l0.1-1.8
			c0.1-1.3,0-3.1,0.2-4s0.3-1.9,0.4-2.8c0.1-0.9,0.5-2.2,0.6-3.3c0.2-1.1,0.5-2.2,0.9-3.3c0.4-1.1,0.6-2.2,1-3.2
			c1.5-4.2,3.8-8,6.1-11.5c4.9-6.8,10.9-12.1,16.6-15.8c11.3-7.2,20.8-9.4,19-14.2c-0.8-1.9-3.8-4.1-9-5c-5.2-1.2-12.7-1-21.5,1.8
			c-8.7,2.8-19,8.4-27.5,18.2c-8.6,9.7-15.4,23.2-16.8,39.8l-0.3,4.4l-0.1,5.1l-0.2,8.9l-0.5,17.8c-0.2,11.9-0.4,23.8-0.6,35.7
			c-0.4,23.8-0.8,47.6-1.1,71.4c-0.7,47.6-1.1,95.3-1,142.9l0.1,28.7l0.1,14.4c0,2.5,0,4.6,0.1,7.4c0.2,3,0.1,6,0.7,9
			c1.6,12,6,23.6,12.8,33.6c6.8,9.9,15.9,18.3,26.4,24.2c2.6,1.5,5.4,2.7,8.1,4c2.8,1,5.6,2.2,8.5,3c3,0.7,5.6,1.6,9.1,2l4.9,0.7
			c1.7,0.2,2.5,0.1,3.8,0.2l4.4,0.2h3.6l7.2-0.1l14.3-0.1l57.4-0.5c76.5-0.7,153-1.5,229.5-2.2l12.9,0.5c2.2,0.1,4.1,0.2,6.7,0.2
			c2.6-0.1,5.2,0,7.8-0.3c10.5-0.9,20.8-4.1,30.1-9.3c18.6-10.3,32.9-28.9,37.7-50.2c2.7-13.2,1.8-20.1,2.3-29.1l0.6-25.9
			c0.3-17.3,0.6-34.6,0.9-51.9c1-69.2,1.4-138.6,1.4-208.2v-26.1v-3.3C491.115,83.559,491.115,82.559,491.015,80.959z"/>
		<path d="M147.315,315.859c-1.3,1.2-0.8,5.6,0.3,8c2.2,4.7,6.7,6,11.3,5.8c15.1-0.5,27.8-6.9,38.4-15.7
			c15.8-13.3,32.1-26.1,47.2-40.2c0.1,0.1,0.3,0.2,0.4,0.3c2.6,3.2,5.2,6.4,7.9,9.5c17.2,19.6,35.2,38.3,56.4,53.7
			c6,4.4,13.6,5.5,19.6-1.4c5.5-6.2,6.1-14.2,1.5-20.2c-8.4-10.8-16.7-21.8-26.5-31.3c-12-11.6-24.7-22.5-37.3-33.5
			c1.2-1.4,2.4-2.7,3.5-4.1c3.2-2.6,6.4-5.2,9.5-7.9c19.6-17.2,38.3-35.2,53.7-56.4c4.4-6,5.5-13.6-1.4-19.6
			c-6.2-5.5-14.2-6.1-20.2-1.5c-10.8,8.4-21.8,16.7-31.3,26.5c-12,12.4-23.2,25.4-34.5,38.4c-19.8-28.2-47.4-49.4-70.1-75
			c-1.2-1.3-5.6-0.8-8,0.3c-4.7,2.2-6,6.7-5.8,11.3c0.5,15.1,6.9,27.8,15.7,38.4c13.4,15.9,26.3,32.3,40.5,47.5
			C191.915,268.259,171.615,294.259,147.315,315.859z"/>
	</g>
    </symbol>
    <symbol id="facebook" viewBox="0 0 310 310"> 
        <g id="XMLID_834_">
            <path id="XMLID_835_" d="M81.703,165.106h33.981V305c0,2.762,2.238,5,5,5h57.616c2.762,0,5-2.238,5-5V165.765h39.064
                c2.54,0,4.677-1.906,4.967-4.429l5.933-51.502c0.163-1.417-0.286-2.836-1.234-3.899c-0.949-1.064-2.307-1.673-3.732-1.673h-44.996
                V71.978c0-9.732,5.24-14.667,15.576-14.667c1.473,0,29.42,0,29.42,0c2.762,0,5-2.239,5-5V5.037c0-2.762-2.238-5-5-5h-40.545
                C187.467,0.023,186.832,0,185.896,0c-7.035,0-31.488,1.381-50.804,19.151c-21.402,19.692-18.427,43.27-17.716,47.358v37.752H81.703
                c-2.762,0-5,2.238-5,5v50.844C76.703,162.867,78.941,165.106,81.703,165.106z"/>
        </g>
    </symbol>
    <symbol id="twitter" viewBox="0 0 33.88 33.88"> 
        <g>
            <path d="M30.414,10.031c0.014,0.297,0.021,0.595,0.021,0.897c0,9.187-6.992,19.779-19.779,19.779c-3.928,0-7.58-1.149-10.657-3.123
                c0.546,0.063,1.099,0.095,1.658,0.095c3.26,0,6.254-1.107,8.632-2.974c-3.039-0.058-5.607-2.065-6.491-4.828
                c0.424,0.082,0.858,0.125,1.308,0.125c0.635,0,1.248-0.084,1.83-0.244c-3.177-0.639-5.576-3.448-5.576-6.815
                c0-0.029,0-0.058,0-0.087c0.939,0.521,2.01,0.833,3.15,0.869C2.646,12.48,1.419,10.35,1.419,7.938c0-1.274,0.343-2.467,0.94-3.495
                c3.427,4.206,8.552,6.973,14.327,7.263c-0.117-0.509-0.18-1.038-0.18-1.584c0-3.838,3.112-6.949,6.953-6.949
                c1.998,0,3.805,0.844,5.07,2.192c1.582-0.311,3.072-0.89,4.416-1.686c-0.521,1.624-1.621,2.986-3.057,3.844
                c1.406-0.166,2.746-0.54,3.991-1.092C32.949,7.826,31.771,9.05,30.414,10.031z"/>
        </g>
    </symbol>
    <symbol id="instagram" viewBox="0 0 24 24"> 
        <path d="M15.9999 7.00005C15.9999 6.44776 16.4477 6.00005 16.9999 6.00005C17.5522 6.00005 17.9999 6.44776 17.9999 7.00005C17.9999 7.55233 17.5522 8.00005 16.9999 8.00005C16.4477 8.00005 15.9999 7.55233 15.9999 7.00005Z" fill=""/>
        <path fill-rule="evenodd" clip-rule="evenodd" d="M11.9999 7.25005C9.37659 7.25005 7.24994 9.37669 7.24994 12C7.24994 14.6234 9.37659 16.75 11.9999 16.75C14.6233 16.75 16.7499 14.6234 16.7499 12C16.7499 9.37669 14.6233 7.25005 11.9999 7.25005ZM8.74994 12C8.74994 10.2051 10.205 8.75005 11.9999 8.75005C13.7949 8.75005 15.2499 10.2051 15.2499 12C15.2499 13.795 13.7949 15.25 11.9999 15.25C10.205 15.25 8.74994 13.795 8.74994 12Z" fill=""/>
        <path fill-rule="evenodd" clip-rule="evenodd" d="M17.2582 2.83306C13.7916 2.44562 10.2083 2.44562 6.74171 2.83306C4.72965 3.05794 3.10532 4.64295 2.86876 6.66548C2.45423 10.2098 2.45423 13.7903 2.86876 17.3346C3.10532 19.3571 4.72965 20.9422 6.74171 21.167C10.2083 21.5545 13.7916 21.5545 17.2582 21.167C19.2702 20.9422 20.8946 19.3571 21.1311 17.3346C21.5457 13.7903 21.5457 10.2098 21.1311 6.66548C20.8946 4.64295 19.2703 3.05794 17.2582 2.83306ZM6.90832 4.32378C10.2642 3.94871 13.7357 3.94871 17.0916 4.32378C18.4217 4.47244 19.4872 5.52205 19.6413 6.83973C20.0423 10.2683 20.0423 13.7318 19.6413 17.1604C19.4872 18.478 18.4217 19.5277 17.0916 19.6763C13.7357 20.0514 10.2642 20.0514 6.90832 19.6763C5.57821 19.5277 4.51272 18.478 4.35861 17.1604C3.95761 13.7318 3.95761 10.2683 4.35861 6.83973C4.51272 5.52205 5.57821 4.47244 6.90832 4.32378Z" fill=""/>
    </symbol>
    <symbol id="whatsapp" viewBox="0 0 30 30">
        <path
            d="M15,30a14.867,14.867,0,0,1-7.79-2.259l-6.6,1.65,1.65-6.6A14.867,14.867,0,0,1,0,15,15,15,0,1,1,15,30ZM7.52,25.852l.321.208A13.191,13.191,0,1,0,1.758,15,13.164,13.164,0,0,0,3.94,22.16l.208.321-1.124,4.5Z"
            transform="translate(0 0)" />
        <path
            d="M12.252,17.829A7.481,7.481,0,0,1,8.39,16.186,29.348,29.348,0,0,1,1.512,9.247,7.206,7.206,0,0,1,0,5.566C0,3.8,1.252,2.688,2.463,1.612c.354-.315.721-.64,1.071-.99L4.156,0,9.127,4.972,7.313,6.786a.9.9,0,0,0-.262.631.818.818,0,0,0,.193.535c2.3,2.719,3.019,2.826,3.048,2.83h.027l.092,0a.9.9,0,0,0,.631-.262L12.856,8.7l4.972,4.972-.622.621c-.351.351-.677.716-.992,1.068-1.133,1.268-2.2,2.467-3.963,2.467ZM4.14,2.47c-.171.156-.341.307-.509.456-1.2,1.063-1.873,1.709-1.873,2.64a5.476,5.476,0,0,0,1.211,2.7,27.838,27.838,0,0,0,6.424,6.48c1.726,1.2,2.574,1.329,2.859,1.329.927,0,1.579-.679,2.652-1.88.148-.166.3-.334.454-.5l-2.5-2.5-.571.571a2.67,2.67,0,0,1-1.864.777h-.009c-.79.041-1.883-.347-4.509-3.448a2.587,2.587,0,0,1-.61-1.671,2.669,2.669,0,0,1,.777-1.874l.571-.571Z"
            transform="translate(6.237 5.935)" />

    </symbol>
</svg>